<svg width="35" height="35" viewBox="0 0 35 35" fill="none" xmlns="http://www.w3.org/2000/svg">
<path d="M28.6708 5.81873C24.8208 3.19373 20.0667 4.41873 17.5 7.42289C14.9333 4.41873 10.1792 3.17914 6.32915 5.81873C4.28749 7.21873 3.00415 9.58123 2.91665 12.075C2.71249 17.7333 7.72915 22.2687 15.3854 29.225L15.5312 29.3562C16.6396 30.3625 18.3458 30.3625 19.4542 29.3416L19.6146 29.1958C27.2708 22.2541 32.2729 17.7187 32.0833 12.0604C31.9958 9.58123 30.7125 7.21873 28.6708 5.81873ZM17.6458 27.0521L17.5 27.1979L17.3541 27.0521C10.4125 20.7666 5.83332 16.6104 5.83332 12.3958C5.83332 9.47914 8.02082 7.29164 10.9375 7.29164C13.1833 7.29164 15.3708 8.73539 16.1437 10.7333H18.8708C19.6292 8.73539 21.8167 7.29164 24.0625 7.29164C26.9791 7.29164 29.1666 9.47914 29.1666 12.3958C29.1666 16.6104 24.5875 20.7666 17.6458 27.0521Z" fill="white"/>
</svg>
