<svg width="35" height="35" viewBox="0 0 35 35" fill="none" xmlns="http://www.w3.org/2000/svg">
<path d="M2.91675 12.25C2.91657 11.2035 3.12499 10.1674 3.52984 9.20231C3.93468 8.23724 4.52782 7.36254 5.2746 6.62934C6.02138 5.89614 6.90681 5.31915 7.87915 4.93208C8.85148 4.54501 9.89122 4.35563 10.9376 4.37501C12.1757 4.36843 13.401 4.62507 14.5324 5.1279C15.6637 5.63074 16.6753 6.36829 17.5001 7.29167C18.3248 6.36829 19.3364 5.63074 20.4678 5.1279C21.5992 4.62507 22.8245 4.36843 24.0626 4.37501C25.109 4.35563 26.1487 4.54501 27.121 4.93208C28.0934 5.31915 28.9788 5.89614 29.7256 6.62934C30.4723 7.36254 31.0655 8.23724 31.4703 9.20231C31.8752 10.1674 32.0836 11.2035 32.0834 12.25C32.0834 20.0608 22.7807 25.9583 17.5001 30.625C12.2311 25.919 2.91675 20.0667 2.91675 12.25Z" fill="white"/>
</svg>
